# xmcd
#
# Track frame offsets: 
#        150
#        18733
#        31377
#        49467
#        68636
#        84735
#        100850
#        114449
#        132838
#        148282
#        167019
#        189973
#        207288
#        230474
#        248510
#        261096
#
# Disc length: 3717 seconds
#
# Revision: 3
# Processed by: cddbd v1.5.2PL0 Copyright (c) Steve Scherf et al.
# Submitted via: ExactAudioCopyFreeDBPlugin 1.0
#
DISCID=df0e8310
DTITLE=Trisha Yearwood - Prizefighter: Hit After Hit
DYEAR=2014
DGENRE=Country
TTITLE0=Prizefighter (Duet with Kelly Clarkson)
TTITLE1=Wrong Side of Memphis
TTITLE2=I Remember You
TTITLE3=Walkaway Joe (Duet with  Don Henley)
TTITLE4=End of the World
TTITLE5=In Another's Eyes (Duet with Garth Brooks)
TTITLE6=Perfect Love
TTITLE7=How Do I Live
TTITLE8=Met Him In a Motel Room
TTITLE9=She's In Love With the Boy
TTITLE10=Your Husband's Cheatin' On Us
TTITLE11=Heaven, Heartache and the Power of Love
TTITLE12=Georgia Rain
TTITLE13=You Can't Trust the Weatherman
TTITLE14=XXX's and OOO's (An American Girl)
TTITLE15=The Song Remembers When
EXTD=
EXTT0=
EXTT1=
EXTT2=
EXTT3=
EXTT4=
EXTT5=
EXTT6=
EXTT7=
EXTT8=
EXTT9=
EXTT10=
EXTT11=
EXTT12=
EXTT13=
EXTT14=
EXTT15=
PLAYORDER=
